<svg version="1.2" xmlns="http://www.w3.org/2000/svg" viewBox="0 0 2000 438" width="2000" height="438">
	<style>
		.s0 { fill: #000000 } 
		.s1 { fill: #eb0028 } 
	</style>
	<g id="Guides">
	</g>
	<g id="Logo">
		<path id="HSRW" fill-rule="evenodd" class="s0" d="m538.38 143.88h13.32v66.99h82.8v-66.99h13.32v146.12h-13.32v-67.14h-82.8v67.14h-13.32zm190.46 9.92c-20.38 0-34.41 11.48-34.41 27.18 0 15.41 14.89 22.62 29.07 26.61l15.39 4.43c18.52 5.21 39.62 14.91 39.62 39.17 0 23.4-18.96 41.31-50.59 41.31-29.79 0-48.6-15.91-50.17-39.03h13.68c1.43 17.34 16.82 26.83 36.49 26.83 21.8 0 37.69-11.77 37.69-29.33 0-14.91-12.4-21.69-30.5-26.97l-17.45-5.13c-22.88-6.78-36.13-18.55-36.13-37.32 0-23.54 20.74-39.74 47.67-39.74 27.15 0 46.31 16.41 47.31 38.6h-12.9c-1.64-16.27-15.46-26.61-34.77-26.61zm79.54-9.92h47.1c30.99 0 47.03 18.19 47.03 43.74 0 19.55-9.41 34.53-27.58 40.52l33.7 61.86h-15.39l-31.99-59.29q-2.67 0.22-5.56 0.22h-33.99v59.07h-13.32zm46.96 74.85c22.87 0 34.06-11.99 34.06-31.11 0-19.12-11.19-31.75-34.28-31.75h-33.42v62.86zm63.44-74.85h13.54l33.06 125.65h1.14l33.06-125.65h15.39l33.07 125.65h1.14l33.06-125.65h13.61l-39.98 146.13h-14.25l-33.84-123.94h-0.93l-33.84 123.94h-14.25z"/>
		<g id="&lt;Group&gt;">
			<path id="&lt;Compound Path&gt;" class="s1" d="m40.85 183.27h-40.85v-37.42h126.57v37.42h-40.84v108.55h-44.88z"/>
			<path id="&lt;Compound Path&gt;" class="s1" d="m133.54 145.85h122.87v37.42h-77.96v18.18h77.96v34.77h-77.96v18.19h77.98v37.41h-122.89z"/>
			<path id="&lt;Compound Path&gt;" fill-rule="evenodd" class="s1" d="m263.97 145.85h73.7c48.58 0 65.75 35.99 65.75 72.77 0 44.79-23.69 73.2-74.52 73.2h-64.93zm44.91 108.55h17.56c27.98 0 32.07-22.7 32.07-36.41 0-9.18-2.88-34.73-35.34-34.73h-14.29z"/>
			<path id="&lt;Compound Path&gt;" class="s1" d="m467.95 235.93l-13.7-22.75-13.36 22.75h-32.91l31.24-46-30.08-44h32.92l12.19 21.75 12.54-21.75h32.91l-30.08 44 31.24 46z"/>
		</g>
	</g>
</svg>